<svg width="42" height="42" viewBox="0 0 42 42" fill="none" xmlns="http://www.w3.org/2000/svg">
<circle cx="21" cy="21" r="21" fill="black"/>
<path fill-rule="evenodd" clip-rule="evenodd" d="M19.0127 15.1971V19.3943H15.0064H11V21.1431V22.8919H14.1837C17.1591 22.8919 17.4427 22.8525 18.5188 22.2908C19.956 21.5404 21.5314 19.734 21.997 18.3021C22.2514 17.5203 22.3514 16.3357 22.3514 14.1063V11H20.682H19.0127V15.1971Z" fill="#FEFEFE"/>
<path fill-rule="evenodd" clip-rule="evenodd" d="M22.6057 26.9936L22.6057 22.9873L26.8029 22.9873L27.2692 22.9873C27.2692 22.9873 28.9016 23.0986 29.9508 22.3196C30.9999 21.5405 31 19.6486 31 19.6486L27.6647 19.6486C24.5476 19.6486 24.2505 19.6863 23.1231 20.2224C21.6175 20.9387 19.9671 22.663 19.4793 24.0298C19.2128 24.7761 19.1081 25.9068 19.1081 28.0348L19.1081 31L20.8569 31L22.6057 31L22.6057 26.9936Z" fill="#FEFEFE"/>
</svg>
